<svg xmlns="http://www.w3.org/2000/svg" aria-hidden="true" style="position:absolute;width:0;height:0;overflow:hidden">
    <defs>
        <symbol id="icon-Accountants" viewBox="0 0 32 32">
            <path fill="#d6b1ff"
                d="M28 32H16a1.334 1.334 0 0 1-1.334-1.334v-2.667A1.334 1.334 0 0 1 16 26.665h12a1.334 1.334 0 0 1 1.334 1.334v2.667A1.334 1.334 0 0 1 28 32z"
                style="fill:var(--color1, #d6b1ff)" />
            <path fill="#11b5e4"
                d="M28 0H4a1.335 1.335 0 0 0-1.334 1.334v2.667A1.335 1.335 0 0 0 4 5.335h24a1.335 1.335 0 0 0 1.334-1.334V1.334A1.334 1.334 0 0 0 28 0zM28 8H4a1.335 1.335 0 0 0-1.334 1.334v13.333A1.335 1.335 0 0 0 4 24.001h24a1.334 1.334 0 0 0 1.334-1.334V9.334A1.334 1.334 0 0 0 28 8z"
                style="fill:var(--color2, #11b5e4)" />
        </symbol>
        <symbol id="icon-Activity" viewBox="0 0 32 32">
            <path
                d="M17.996 4.024 8.668 6.895C5.269 7.941 3.819 10.576 4.66 14.18l2.305 9.881c.841 3.604 3.243 5.053 6.642 4.007l9.328-2.871c3.399-1.046 4.84-3.678 3.999-7.283l-2.305-9.881c-.841-3.604-3.234-5.056-6.633-4.01z"
                style="fill:var(--color3, #000)" />
            <path fill="#e31313"
                d="m17.329 8.444-6.162 1.896c-2.245.691-3.218 2.366-2.69 4.632l1.449 6.212c.529 2.266 2.1 3.158 4.345 2.467l6.162-1.896c2.245-.691 3.212-2.364 2.684-4.63l-1.449-6.212c-.529-2.266-2.094-3.16-4.34-2.469z"
                opacity=".5" style="fill:var(--color4, #e31313)" />
            <path fill="#f03e3d"
                d="M24.15 9.216h-8.816c-3.447 0-5.765 2.654-5.765 6.603v9.112c0 3.937 2.318 6.591 5.765 6.591h8.816c3.447 0 5.755-2.654 5.755-6.591v-9.112c0-3.948-2.308-6.603-5.755-6.603z"
                style="fill:var(--color5, #f03e3d)" />
            <path fill="none" stroke="#000" stroke-linecap="round" stroke-linejoin="round" stroke-width=".478"
                d="M24.15 8.977h-8.816c-1.789 0-3.297.691-4.355 1.902-1.056 1.209-1.649 2.919-1.649 4.939v9.112c0 2.014.593 3.722 1.649 4.929 1.058 1.21 2.566 1.901 4.355 1.901h8.816c1.789 0 3.295-.691 4.35-1.901 1.053-1.207 1.644-2.915 1.644-4.929v-9.112c0-2.02-.591-3.73-1.644-4.939-1.056-1.212-2.561-1.903-4.35-1.903z"
                style="stroke:var(--color3, #000)" />
            <path
                d="M30.984 7.578c-.825 0-1.494.734-1.494 1.639s.669 1.639 1.494 1.639 1.494-.734 1.494-1.639c0-.435-.157-.851-.438-1.159s-.66-.48-1.056-.48zM25.057 18.394l-2.906 4.113a.706.706 0 0 1-1.073.147l-2.79-2.399-2.512 3.565c-.182.317-.536.459-.862.346s-.541-.452-.524-.826a.852.852 0 0 1 .161-.509l3.004-4.25a.706.706 0 0 1 1.064-.156l2.79 2.409 2.45-3.457c.118-.178.297-.297.495-.328s.401.027.56.161a.897.897 0 0 1 .143 1.165v.02z"
                style="fill:var(--color3, #000)" />
        </symbol>
        <symbol id="icon-arrow" viewBox="0 0 21 32">
            <path fill="#fff"
                d="M19.042 18.067 1.832.857a1.003 1.003 0 0 0-.756-.319C.942.538.79.572.673.622a1.079 1.079 0 0 0-.672.992v25.277c0 .437.269.824.672.992.118.05.269.084.403.084.286 0 .555-.118.756-.319l5.244-5.244 3.21 7.597a1.08 1.08 0 0 0 1.412.571l2.975-1.261a1.08 1.08 0 0 0 .571-1.412l-3.378-8h6.42c.437 0 .824-.269.992-.672a1.038 1.038 0 0 0-.235-1.16z"
                style="fill:var(--color6, #fff)" />
        </symbol>
        <symbol id="icon-Chart" viewBox="0 0 32 32">
            <path
                d="M16.507 3.263 7.416 5.862c-3.313.947-4.687 3.486-3.799 7.021l2.433 9.69c.888 3.534 3.268 5 6.58 4.053l9.091-2.599c3.313-.947 4.678-3.484 3.791-7.018l-2.433-9.69c-.888-3.534-3.259-5.003-6.572-4.056z"
                style="fill:var(--color3, #000)" />
            <path fill="#11b5e4"
                d="m20.987 15.961-1.651-6.672c-.599-2.42-2.098-3.505-4.068-2.95l-6.674 1.88c-2.003.564-2.779 2.29-2.18 4.71l1.651 6.672c.608 2.459 2.072 3.512 4.074 2.948l6.674-1.88c1.971-.555 2.782-2.248 2.173-4.708z"
                opacity=".5" style="fill:var(--color2, #11b5e4)" />
            <path fill="#00acdd"
                d="M24.411 7.834H15c-3.429 0-5.373 2.073-5.373 5.732v10.031c0 3.659 1.943 5.732 5.373 5.732h9.411c3.429 0 5.364-2.073 5.364-5.732V13.566c0-3.659-1.934-5.732-5.364-5.732z"
                style="fill:var(--color7, #00acdd)" />
            <path
                d="M24.411 8.278a.444.444 0 0 0 0-.888v.889zm0-.889a.444.444 0 0 0 0 .888v-.889zm0 0H15v.889h9.411v-.889zm-9.411 0c-1.806 0-3.279.548-4.297 1.634-1.014 1.082-1.52 2.638-1.52 4.542h.889c0-1.754.465-3.065 1.28-3.934.811-.865 2.024-1.353 3.648-1.353v-.889zm-5.817 6.177v10.031h.889V13.566h-.889zm0 10.031c0 1.905.506 3.46 1.52 4.542 1.018 1.086 2.491 1.634 4.297 1.634v-.889c-1.624 0-2.837-.488-3.648-1.353-.815-.869-1.28-2.18-1.28-3.934h-.889zM15 29.774h9.411v-.889H15v.889zm9.411 0c1.806 0 3.277-.548 4.293-1.635 1.012-1.082 1.516-2.638 1.516-4.542h-.889c0 1.755-.463 3.066-1.276 3.935-.808.865-2.019 1.353-3.643 1.353v.889zm5.808-6.177V13.566h-.889v10.031h.889zm0-10.031c0-1.904-.504-3.46-1.516-4.542-1.016-1.087-2.487-1.635-4.293-1.635v.889c1.624 0 2.835.488 3.643 1.353.813.869 1.276 2.18 1.276 3.935h.889zM19.736 12.229c-.457 0-.833.401-.833.898v10.91c0 .487.376.889.833.889.466 0 .842-.401.842-.889v-10.91c0-.497-.376-.898-.842-.898zm-4.701 3.525c-.457 0-.833.401-.833.898v7.385c0 .487.376.889.833.889.466 0 .842-.401.842-.889v-7.385c0-.497-.376-.898-.842-.898zm8.498 4.796c0-.497.376-.898.842-.898.457 0 .833.401.833.898v3.487c0 .487-.376.889-.842.889-.457 0-.833-.401-.833-.889V20.55z"
                style="fill:var(--color3, #000)" />
            <path
                d="M19.081 13.127c0-.411.308-.72.655-.72v-.356c-.567 0-1.011.493-1.011 1.076h.356zm0 10.91v-10.91h-.356v10.91h.356zm.655.711c-.348 0-.655-.311-.655-.711h-.356c0 .574.445 1.066 1.011 1.066v-.356zm.664-.711c0 .399-.306.711-.664.711v.356c.573 0 1.019-.491 1.019-1.066h-.356zm0-10.91v10.91h.356v-10.91H20.4zm-.664-.721c.357 0 .664.311.664.72h.356c0-.584-.445-1.076-1.019-1.076v.356zm-5.356 4.246c0-.411.308-.72.655-.72v-.356c-.567 0-1.011.493-1.011 1.076h.356zm0 7.385v-7.385h-.356v7.385h.356zm.655.711c-.348 0-.655-.311-.655-.711h-.356c0 .574.445 1.066 1.011 1.066v-.356zm.664-.711c0 .399-.306.711-.664.711v.356c.573 0 1.019-.491 1.019-1.066h-.356zm0-7.385v7.385h.356v-7.385h-.356zm-.664-.72c.357 0 .664.311.664.72h.356c0-.584-.445-1.076-1.019-1.076v.356zm9.34 3.542c-.575 0-1.02.492-1.02 1.076h.356c0-.41.307-.72.664-.72v-.356zm1.01 1.076c0-.583-.444-1.076-1.011-1.076v.356c.347 0 .655.309.655.72h.356zm0 3.487V20.55h-.356v3.487h.356zm-1.019 1.067c.573 0 1.02-.491 1.02-1.066h-.356c0 .399-.306.711-.664.711v.356zm-1.011-1.067c0 .574.445 1.066 1.011 1.066v-.356c-.348 0-.655-.311-.655-.711h-.356zm0-3.487v3.487h.356V20.55h-.356z"
                style="fill:var(--color3, #000)" />
        </symbol>
        <symbol id="icon-enterpreneur" viewBox="0 0 32 32">
            <path fill="#d6b1ff" d="M24 13.333h8L28 8l-4 5.333zm0 5.334h8L28 24l-4-5.333z"
                style="fill:var(--color1, #d6b1ff)" />
            <path fill="#02897a"
                d="M1.333 0h8v32h-8a1.334 1.334 0 0 1-1.334-1.334V1.333A1.335 1.335 0 0 1 1.333-.001zM12 0h8a1.335 1.335 0 0 1 1.334 1.334v29.333A1.334 1.334 0 0 1 20 32.001h-8v-32z"
                style="fill:var(--color8, #02897a)" />
        </symbol>
        <symbol id="icon-facebook" viewBox="0 0 32 32">
            <path fill="none" stroke="#02897a" stroke-linecap="round" stroke-linejoin="round" stroke-width="2.667"
                d="M24 2.667h-4a6.67 6.67 0 0 0-6.667 6.667v4h-4v5.333h4v10.667h5.333V18.667h4l1.333-5.333h-5.333v-4A1.334 1.334 0 0 1 20 8h4V2.667z"
                style="stroke:var(--color8, #02897a)" />
        </symbol>
        <symbol id="icon-hurt" viewBox="0 0 34 32">
            <path fill="#fff"
                d="M17.067 30.172c.305 0 .61-.114.838-.343l11.867-11.428c.171-.171 4.362-4 4.362-8.571 0-5.581-3.41-8.914-9.105-8.914-3.333 0-6.457 2.629-7.962 4.114C15.562 3.544 12.438.916 9.105.916 3.41.916 0 4.249 0 9.83c0 4.571 4.191 8.4 4.343 8.533L16.229 29.83c.229.229.533.343.838.343z"
                style="fill:var(--color6, #fff)" />
        </symbol>
        <symbol id="icon-instagram" viewBox="0 0 32 32">
            <path fill="none" stroke="#02897a" stroke-linecap="round" stroke-linejoin="round" stroke-width="2.667"
                d="M22.667 2.667H9.334a6.667 6.667 0 0 0-6.667 6.667v13.333a6.667 6.667 0 0 0 6.667 6.667h13.333a6.667 6.667 0 0 0 6.667-6.667V9.334a6.667 6.667 0 0 0-6.667-6.667z"
                style="stroke:var(--color8, #02897a)" />
            <path fill="none" stroke="#02897a" stroke-linecap="round" stroke-linejoin="round" stroke-width="2.667"
                d="M21.333 15.16a5.338 5.338 0 0 1-6.123 6.049 5.334 5.334 0 1 1 6.124-6.048zM23.333 8.667h.013"
                style="stroke:var(--color8, #02897a)" />
        </symbol>
        <symbol id="icon-light-header" viewBox="0 0 32 32">
            <path fill="#02897a"
                d="M16 29.333c7.352 0 13.333-5.981 13.333-13.333S23.352 2.667 16 2.667 2.667 8.648 2.667 16 8.648 29.333 16 29.333zm0-24c5.881 0 10.667 4.785 10.667 10.667S21.882 26.667 16 26.667c-5.881 0-10.667-4.785-10.667-10.667S10.118 5.333 16 5.333z"
                style="fill:var(--color8, #02897a)" />
            <path fill="#02897a" d="M25.333 16A9.334 9.334 0 0 0 16 6.667v18.667c5.153 0 9.333-4.179 9.333-9.333z"
                style="fill:var(--color8, #02897a)" />
        </symbol>
        <symbol id="icon-logo" viewBox="0 0 36 32">
            <path fill="#02bc6b"
                d="M2.785 30.323C1.253 30.323 0 29.082 0 27.566v-9.639h7.01v-.011h4.213c1.086-.028 2.005-.965 2.005-2.068 0-1.13-.947-2.068-2.089-2.068l-11.14.002v-2.759c0-1.516 1.253-2.757 2.785-2.757h8.355c2.117 0 3.927.744 5.403 2.233 1.504 1.461 2.256 3.253 2.256 5.349 0 2.068-.724 3.86-2.2 5.321s-3.258 2.233-5.347 2.261H5.57v4.136c0 1.516-1.253 2.757-2.785 2.757z"
                style="fill:var(--color9, #02bc6b)" />
            <path fill="#02897a"
                d="M22.309 5.067c3.077 2.959 4.627 6.644 4.627 10.832 0 4.118-1.486 7.8-4.515 10.768l-4.301-4.006c1.884-1.846 2.809-4.068 2.809-6.761 0-2.714-.953-4.933-2.882-6.788l4.262-4.044z"
                style="fill:var(--color8, #02897a)" />
            <path fill="#035b81"
                d="M28.894 0c4.432 4.38 6.662 9.812 6.662 16.046 0 6.136-2.14 11.564-6.499 15.954l-4.151-4.015c3.247-3.27 4.838-7.236 4.838-11.939 0-4.75-1.645-8.713-4.962-11.992L28.895.001z"
                style="fill:var(--color10, #035b81)" />
            <path fill="#028e37" d="M0 23.454h5.57v4.113c0 1.516-1.253 2.757-2.785 2.757S0 29.083 0 27.567v-4.113z"
                style="fill:var(--color11, #028e37)" />
        </symbol>
        <symbol id="icon-menu" viewBox="0 0 29 32">
            <path fill="none" stroke="#173a56" stroke-linecap="round" stroke-linejoin="round" stroke-width="3.097"
                d="M3.613 16H25.29M3.613 8H25.29M3.613 24H25.29" style="stroke:var(--color12, #173a56)" />
        </symbol>
        <symbol id="icon-mobile-screen" viewBox="0 0 21 32">
            <path fill="#02897a"
                d="M16.935 2.286H3.636c-1.377 0-2.494 1.152-2.494 2.571v22.286c0 1.42 1.117 2.571 2.494 2.571h13.299c1.377 0 2.494-1.152 2.494-2.571V4.857c0-1.42-1.117-2.571-2.494-2.571zm-4.156 23.952c0 .52-.374.905-.831.905H8.577c-.41 0-.784-.386-.784-.857s.374-.857.831-.857h3.325c.457 0 .831.386.831.809zm3.325-3.381H4.468V5.714h11.636v17.143z"
                style="fill:var(--color8, #02897a)" />
        </symbol>
        <symbol id="icon-plus_circle" viewBox="0 0 32 32">
            <path fill="#02897a"
                d="M0 16C0 7.168 7.168 0 16 0s16 7.168 16 16-7.168 16-16 16S0 24.832 0 16zm17.6 1.6H24v-3.2h-6.4V8h-3.2v6.4H8v3.2h6.4V24h3.2v-6.4z"
                style="fill:var(--color8, #02897a)" />
        </symbol>
        <symbol id="icon-sand-clock" viewBox="0 0 26 32">
            <path fill="#fff"
                d="M23.664 2.689h1.614a.531.531 0 0 0 .538-.538V1.075a.53.53 0 0 0-.538-.538H.538A.53.53 0 0 0 0 1.075v1.076a.53.53 0 0 0 .538.538h1.613c0 6.219 2.975 10.723 6.269 12.908-3.294 2.185-6.269 6.689-6.269 12.908H.538a.53.53 0 0 0-.538.538v1.076c0 .302.235.538.538.538h24.74a.531.531 0 0 0 .538-.538v-1.076a.531.531 0 0 0-.538-.538h-1.614c0-6.219-2.975-10.723-6.269-12.908 3.294-2.185 6.269-6.689 6.269-12.908zm-2.151 0c0 2.454-.555 4.622-1.429 6.454H5.731c-.874-1.832-1.429-4-1.429-6.454h17.21zm-.958 20.437H5.261c1.244-3.244 3.479-5.546 5.714-6.454h3.866c2.235.908 4.471 3.21 5.714 6.454z"
                style="fill:var(--color6, #fff)" />
        </symbol>
        <symbol id="icon-stars" viewBox="0 0 188 32">
            <path fill="#f3cd03"
                d="M32.404 11.487c-.102-.296-.29-.556-.541-.749s-.553-.308-.869-.333l-9.261-.725L17.725.944c-.128-.281-.335-.52-.598-.688a1.638 1.638 0 0 0-1.764-.001 1.6 1.6 0 0 0-.599.687l-4.008 8.737-9.261.725c-.311.024-.609.136-.857.323s-.437.439-.543.728a1.577 1.577 0 0 0 .394 1.689l6.844 6.57-2.421 10.321c-.074.312-.05.639.068.938s.324.556.592.739a1.64 1.64 0 0 0 1.826.013l8.845-5.807 8.845 5.807a1.646 1.646 0 0 0 1.857-.04c.268-.193.47-.462.579-.771s.118-.644.028-.958l-2.971-10.238 7.369-6.53c.482-.429.66-1.097.452-1.704zM71.393 11.487c-.102-.296-.29-.556-.541-.749s-.553-.308-.87-.333l-9.261-.725L56.713.944c-.128-.281-.335-.52-.598-.688a1.638 1.638 0 0 0-1.764-.001 1.6 1.6 0 0 0-.599.687l-4.008 8.737-9.261.725c-.311.024-.609.136-.857.323s-.436.439-.543.728-.125.602-.055.902c.07.3.226.573.449.787l6.844 6.57L43.9 30.035c-.073.312-.05.639.068.938a1.616 1.616 0 0 0 1.502 1.022c.326.002.644-.092.915-.27l8.846-5.807 8.845 5.807a1.646 1.646 0 0 0 1.857-.04c.268-.193.47-.462.579-.771s.118-.644.028-.958l-2.971-10.238 7.369-6.53c.483-.429.66-1.097.452-1.704zM110.376 11.487c-.102-.296-.29-.556-.541-.749s-.553-.308-.87-.333l-9.261-.725L95.696.944c-.128-.281-.335-.52-.598-.688a1.638 1.638 0 0 0-1.764-.001 1.6 1.6 0 0 0-.599.687l-4.008 8.737-9.261.725c-.311.024-.609.136-.857.323s-.437.439-.543.728a1.577 1.577 0 0 0 .394 1.689l6.844 6.57-2.42 10.321c-.073.312-.05.639.068.938s.324.556.592.739a1.64 1.64 0 0 0 1.826.013l8.846-5.807 8.845 5.807a1.646 1.646 0 0 0 1.857-.04 1.583 1.583 0 0 0 .607-1.729l-2.971-10.238 7.369-6.53c.482-.429.66-1.097.452-1.704zM149.369 11.487c-.102-.296-.29-.556-.541-.749s-.553-.308-.869-.333l-9.261-.725L134.69.944c-.128-.281-.335-.52-.598-.688a1.638 1.638 0 0 0-1.764-.001 1.6 1.6 0 0 0-.599.687l-4.008 8.737-9.261.725c-.311.024-.609.136-.857.323s-.437.439-.543.728a1.577 1.577 0 0 0 .394 1.689l6.844 6.57-2.42 10.321c-.074.312-.05.639.068.938s.324.556.592.739a1.64 1.64 0 0 0 1.826.013l8.845-5.807 8.845 5.807a1.646 1.646 0 0 0 1.857-.04c.268-.193.47-.462.579-.771.109-.309.118-.644.028-.958l-2.971-10.238 7.369-6.53c.482-.429.66-1.097.452-1.704zM163.291 19.716l-2.42 10.321c-.075.313-.052.64.065.94s.323.558.591.74a1.635 1.635 0 0 0 1.828.01l8.845-5.807 8.846 5.807a1.644 1.644 0 0 0 1.858-.04c.268-.193.469-.462.578-.771s.119-.644.028-.958l-2.971-10.238 7.369-6.53a1.587 1.587 0 0 0-.088-2.451 1.632 1.632 0 0 0-.869-.332l-9.262-.726-4.008-8.736c-.128-.281-.335-.52-.598-.688a1.638 1.638 0 0 0-1.764 0 1.6 1.6 0 0 0-.598.688l-4.008 8.736-9.261.725c-.311.024-.609.136-.857.323s-.437.439-.543.728a1.586 1.586 0 0 0 .394 1.689l6.845 6.57zm4.634-6.92c.29-.023.568-.121.806-.286s.426-.39.545-.651l2.923-6.368 2.923 6.368a1.627 1.627 0 0 0 1.351.937l6.453.504-5.314 4.709a1.587 1.587 0 0 0-.476 1.628l2.035 7.014-6.069-3.985a1.634 1.634 0 0 0-1.802 0l-6.342 4.164 1.706-7.272a1.579 1.579 0 0 0-.448-1.504l-4.935-4.738 6.644-.521z"
                style="fill:var(--color13, #f3cd03)" />
        </symbol>
        <symbol id="icon-twitter" viewBox="0 0 32 32">
            <path fill="none" stroke="#02897a" stroke-linecap="round" stroke-linejoin="round" stroke-width="2.667"
                d="M30.667 4.013a14.542 14.542 0 0 1-4.187 2.04 5.975 5.975 0 0 0-6.637-1.661A5.979 5.979 0 0 0 16 10.053v1.333a14.211 14.211 0 0 1-12-6.04s-5.333 12 6.667 17.333a15.519 15.519 0 0 1-9.333 2.667c12 6.667 26.667 0 26.667-15.333a5.966 5.966 0 0 0-.107-1.107 10.288 10.288 0 0 0 2.773-4.893v0z"
                style="stroke:var(--color8, #02897a)" />
        </symbol>
        <symbol id="icon-Universities" viewBox="0 0 32 32">
            <path fill="#d6b1ff"
                d="M6.667 1.333h-4a1.335 1.335 0 0 0-1.334 1.334v26.667a1.335 1.335 0 0 0 1.334 1.334h4V1.335z"
                style="fill:var(--color1, #d6b1ff)" />
            <path fill="#f03e3d"
                d="M9.333 30.667h13.333V1.334H9.333v29.333zM16 25.333a1.334 1.334 0 1 1 0-2.667 1.334 1.334 0 0 1 0 2.667zm0-18.666a1.335 1.335 0 0 1 .943 2.277A1.334 1.334 0 1 1 16 6.667zm0 8a1.334 1.334 0 1 1 0 2.667 1.334 1.334 0 0 1 0-2.667zM29.333 1.333h-4v29.333h4a1.334 1.334 0 0 0 1.334-1.334V2.665a1.334 1.334 0 0 0-1.334-1.334z"
                style="fill:var(--color5, #f03e3d)" />
        </symbol>
        <symbol id="icon-video" viewBox="0 0 28 32">
            <path
                d="M26.088 12.891c2.441 1.354 2.441 4.864 0 6.218L4.933 30.848c-2.37 1.315-5.281-.399-5.281-3.109V4.262c0-2.71 2.911-4.424 5.281-3.109l21.155 11.739z" />
        </symbol>
        <symbol id="icon-wave" viewBox="0 0 41 32">
            <path fill="#fff"
                d="m21.673 12.898 2.674 1.245 3.98-1.184v-2.775c0-4.714-3.98-8.49-8.735-8.49-4.735 0-8.735 3.755-8.735 8.429v12.653c0 1.163-.939 2.082-2.082 2.082s-2.082-.918-2.082-2.082v-5.347H-.001v5.429a8.753 8.753 0 0 0 8.755 8.755c4.796 0 8.755-3.857 8.755-8.633V10.49c0-1.143.939-2.082 2.082-2.082s2.082.939 2.082 2.082v2.408zm10.817 4.531v5.612c0 1.143-.939 2.061-2.082 2.061s-2.082-.918-2.082-2.061v-5.51l-3.98 1.184-2.674-1.245v5.469c0 4.796 3.939 8.674 8.755 8.674a8.753 8.753 0 0 0 8.755-8.755v-5.429h-6.694z"
                style="fill:var(--color6, #fff)" />
        </symbol>
        <symbol id="icon-blue-accept" viewBox="0 0 31 32">
            <path fill="#4d8dff"
                d="M12.315 1.82h6.482c6.085 0 11.018 4.933 11.018 11.018v6.481c0 6.085-4.933 11.018-11.018 11.018h-6.482c-6.085 0-11.018-4.933-11.018-11.018v-6.482c0-6.085 4.933-11.018 11.018-11.018z"
                style="fill:var(--color1, #4d8dff)" />
            <path fill="none" stroke-width="2.593"
                d="M12.315 1.82h6.482c6.085 0 11.018 4.933 11.018 11.018v6.481c0 6.085-4.933 11.018-11.018 11.018h-6.482c-6.085 0-11.018-4.933-11.018-11.018v-6.482c0-6.085 4.933-11.018 11.018-11.018z" />
            <path fill="none" stroke-width="2.593"
                d="M12.315 1.82h6.482c6.085 0 11.018 4.933 11.018 11.018v6.481c0 6.085-4.933 11.018-11.018 11.018h-6.482c-6.085 0-11.018-4.933-11.018-11.018v-6.482c0-6.085 4.933-11.018 11.018-11.018z" />
            <path fill="#fff"
                d="M22.903 11.403a.7.7 0 0 0-1.006 0l-8.52 8.701-3.275-3.344c-.278-.284-.728-.284-1.006 0s-.278.743 0 1.027l3.778 3.858a.701.701 0 0 0 1.006 0l9.022-9.214a.737.737 0 0 0 0-1.027z"
                style="fill:var(--color2, #fff)" />
        </symbol>
        <symbol id="icon-red-accept" viewBox="0 0 31 32">
            <path fill="#f03e3d"
                d="M12.315 1.82h6.482c6.085 0 11.018 4.933 11.018 11.018v6.481c0 6.085-4.933 11.018-11.018 11.018h-6.482c-6.085 0-11.018-4.933-11.018-11.018v-6.482c0-6.085 4.933-11.018 11.018-11.018z"
                style="fill:var(--color3, #f03e3d)" />
            <path fill="none" stroke-width="2.593"
                d="M12.315 1.82h6.482c6.085 0 11.018 4.933 11.018 11.018v6.481c0 6.085-4.933 11.018-11.018 11.018h-6.482c-6.085 0-11.018-4.933-11.018-11.018v-6.482c0-6.085 4.933-11.018 11.018-11.018z" />
            <path fill="none" stroke-width="2.593"
                d="M12.315 1.82h6.482c6.085 0 11.018 4.933 11.018 11.018v6.481c0 6.085-4.933 11.018-11.018 11.018h-6.482c-6.085 0-11.018-4.933-11.018-11.018v-6.482c0-6.085 4.933-11.018 11.018-11.018z" />
            <path fill="#fff"
                d="M22.903 11.403a.7.7 0 0 0-1.006 0l-8.52 8.701-3.275-3.344c-.278-.284-.728-.284-1.006 0s-.278.743 0 1.027l3.778 3.858a.701.701 0 0 0 1.006 0l9.022-9.214a.737.737 0 0 0 0-1.027z"
                style="fill:var(--color2, #fff)" />
        </symbol>
        <symbol id="icon-yellow-accept" viewBox="0 0 31 32">
            <path fill="#f90"
                d="M12.315 1.612h6.482c6.085 0 11.018 4.933 11.018 11.018v6.482c0 6.085-4.933 11.018-11.018 11.018h-6.482c-6.085 0-11.018-4.933-11.018-11.018V12.63c0-6.085 4.933-11.018 11.018-11.018z"
                style="fill:var(--color4, #f90)" />
            <path fill="none" stroke-width="2.593"
                d="M12.315 1.612h6.482c6.085 0 11.018 4.933 11.018 11.018v6.482c0 6.085-4.933 11.018-11.018 11.018h-6.482c-6.085 0-11.018-4.933-11.018-11.018V12.63c0-6.085 4.933-11.018 11.018-11.018z" />
            <path fill="none" stroke-width="2.593"
                d="M12.315 1.612h6.482c6.085 0 11.018 4.933 11.018 11.018v6.482c0 6.085-4.933 11.018-11.018 11.018h-6.482c-6.085 0-11.018-4.933-11.018-11.018V12.63c0-6.085 4.933-11.018 11.018-11.018z" />
            <path fill="#fff"
                d="M22.903 11.195a.7.7 0 0 0-1.006 0l-8.52 8.701-3.275-3.344c-.278-.284-.728-.284-1.006 0s-.278.743 0 1.027l3.778 3.858a.701.701 0 0 0 1.006 0l9.022-9.214a.737.737 0 0 0 0-1.027z"
                style="fill:var(--color2, #fff)" />
        </symbol>
        <symbol id="icon-pagination" viewBox="0 0 136 32">
            <path fill="#efefef" style="fill: var(--color1, #efefef)"
                d="M32 16c0 8.837-7.163 16-16 16s-16-7.163-16-16c0-8.837 7.163-16 16-16s16 7.163 16 16z"></path>
            <path fill="#02897a" style="fill: var(--color2, #02897a)"
                d="M84 16c0 8.837-7.163 16-16 16s-16-7.163-16-16c0-8.837 7.163-16 16-16s16 7.163 16 16z"></path>
            <path fill="#efefef" style="fill: var(--color1, #efefef)"
                d="M136 16c0 8.837-7.163 16-16 16s-16-7.163-16-16c0-8.837 7.163-16 16-16s16 7.163 16 16z"></path>
        </symbol>
    </defs>
</svg>